# xmcd
#
# Track frame offsets:
#	150
#	15699
#	27850
#	44665
#	61310
#	74127
#	89870
#	98890
#	108752
#	125360
#	140863
#
# Disc length: 2027 seconds
#
# Revision: 0
# Processed by: cddbd v1.5.2PL0 Copyright (c) Steve Scherf et al.
# Submitted via: EasyCDDAExtractor 10.0.6.1
#
DISCID=a507e90b
DTITLE=Various Artist - HMG Bluegrass Vol.7
DYEAR=1900
DGENRE=Bluegrass
TTITLE0=Doyle Lawson - Blue Train
TTITLE1=Karen Lynne - This Ring
TTITLE2=Gene Snow - Kentucky Moon
TTITLE3=Sharon Hardman - Lord, I'm Your Child
TTITLE4=Edward James Richard - The Bread Of Life
TTITLE5=Kathy Chiavola - Last Words
TTITLE6=Amber Morgan - Through These Doors
TTITLE7=Southern Dogwood - Goodbye World, Goodbye
TTITLE8=Travis Wetzel - Pawnee Dance
TTITLE9=Can Joe John - Wayfaring Stranger
TTITLE10=Ken Harrison - Matthew Twenty-Four
EXTD=
EXTT0=
EXTT1=
EXTT2=
EXTT3=
EXTT4=
EXTT5=
EXTT6=
EXTT7=
EXTT8=
EXTT9=
EXTT10=
PLAYORDER=
